<?xml version="1.0" encoding="utf-8"?>
<!-- Generator: Adobe Illustrator 22.1.0, SVG Export Plug-In . SVG Version: 6.00 Build 0)  -->
<svg version="1.1" id="Layer_1" xmlns="http://www.w3.org/2000/svg" xmlns:xlink="http://www.w3.org/1999/xlink" x="0px" y="0px"
	 viewBox="0 0 623.3 481.5" style="enable-background:new 0 0 623.3 481.5;" xml:space="preserve">
<style type="text/css">
	.st0{fill:#262161;}
	.st1{fill:#EE4223;}
</style>
<title>LOGO</title>
<path class="st0" d="M367.9,268.8c-0.1-0.6-8-66.2-20.3-130.8c-23.3-122.8-40-126.3-41.8-126.3c-0.1,0-12,0.8-23.6,72.4
	c-6.2,38-9.1,76.4-9.2,76.8l-11.7-0.9c0-0.4,3-39.3,9.3-77.8C282.5,9.3,295.7,0,305.9,0c12.8,0,30.5,15.5,53.3,135.9
	c12.3,65,20.3,130.9,20.4,131.5L367.9,268.8z"/>
<path class="st0" d="M489.4,380.2c-14.3,0-44-12.2-111.1-56.9c-50.6-33.7-99.5-70.7-100-71.1l7.1-9.3c0.5,0.4,48.3,36.6,98.2,69.9
	c29.2,19.5,53.4,34.1,71.8,43.5c30.7,15.6,36.2,11.8,36.3,11.7l0.2-0.2c0.3-0.4,8-9.8-34-71.8c-22.2-32.7-46.9-63.3-47.1-63.6
	l9.1-7.4c0.3,0.3,25.3,31.3,47.7,64.4c42.1,62.1,39.8,78.7,32.9,86.2C498.3,378.4,495,380.2,489.4,380.2z"/>
<path class="st0" d="M138.6,383.1c-10.2,0-14.7-3.2-17.3-6.8c-7.2-9.6-3.5-30.1,77.1-108.4c43.6-42.4,90.1-82.3,90.6-82.7l7.6,8.9
	c-0.5,0.4-46,39.5-89.1,81.3c-25.2,24.4-44.6,45-57.7,61c-21.7,26.7-19.1,32.9-19.1,32.9l0.1,0.2c0.3,0.4,7.9,9.9,77.3-18
	c36.6-14.7,71.8-32.5,72.1-32.6l5.3,10.4c-0.4,0.2-36,18.1-73,33C173.6,378,151.6,383.1,138.6,383.1z"/>
<path class="st0" d="M294.1,334.9c-9.1,0-16.4-7.3-16.4-16.4s7.3-16.4,16.4-16.4s16.4,7.3,16.4,16.4
	C310.5,327.5,303.2,334.8,294.1,334.9z M294.1,313.8c-2.6,0-4.7,2.1-4.7,4.7c0,2.6,2.1,4.7,4.7,4.7c2.6,0,4.7-2.1,4.7-4.7l0,0
	C298.8,315.9,296.7,313.8,294.1,313.8L294.1,313.8z"/>
<path class="st0" d="M266,190.9c-9.1,0-16.4-7.3-16.4-16.4c0-9.1,7.3-16.4,16.4-16.4c9.1,0,16.4,7.3,16.4,16.4c0,0,0,0,0,0
	C282.4,183.5,275.1,190.8,266,190.9z M266,169.8c-2.6,0-4.7,2.1-4.7,4.7c0,2.6,2.1,4.7,4.7,4.7c2.6,0,4.7-2.1,4.7-4.7c0,0,0,0,0,0
	C270.7,171.9,268.6,169.8,266,169.8z"/>
<path class="st0" d="M408.9,236.5c-9.1,0-16.4-7.3-16.4-16.4c0-9.1,7.3-16.4,16.4-16.4c9,0,16.4,7.3,16.4,16.4
	C425.3,229.2,417.9,236.5,408.9,236.5z M408.9,215.4c-2.6,0-4.7,2.1-4.7,4.7s2.1,4.7,4.7,4.7s4.7-2.1,4.7-4.7
	S411.5,215.4,408.9,215.4L408.9,215.4L408.9,215.4z"/>
<circle class="st0" cx="374.9" cy="272.8" r="8.2"/>
<circle class="st0" cx="278.9" cy="244.7" r="8.2"/>
<circle class="st0" cx="296.5" cy="187.3" r="8.2"/>
<path class="st1" d="M35.1,481.5l-10.6-15.3H12.8v15.3H0v-55.1h23.8c14.7,0,23.9,7.6,23.9,20c0,8.3-4.2,14.3-11.3,17.4l12.4,17.7
	L35.1,481.5z M23.1,436.9H12.8v19.2h10.4c7.8,0,11.7-3.6,11.7-9.6S30.9,436.9,23.1,436.9L23.1,436.9z"/>
<path class="st1" d="M116.2,471.3v10.2H73.5v-55.1h41.6v10.2h-29v12h25.6v9.9H86.2v12.8L116.2,471.3z"/>
<path class="st1" d="M142.1,426.5h25c18,0,30.4,10.9,30.4,27.5s-12.4,27.5-30.4,27.5h-25V426.5z M166.5,471.1
	c10.9,0,18.1-6.5,18.1-17.1s-7.2-17.1-18.1-17.1h-11.6v34.1H166.5z"/>
<path class="st1" d="M219.3,454c0-16.6,12.8-28.5,29.9-28.5c9.5,0,17.5,3.5,22.7,9.8l-8.2,7.6c-3.4-4.1-8.5-6.5-13.9-6.5
	c-10.3,0-17.6,7.2-17.6,17.6s7.3,17.6,17.6,17.6c5.4,0.1,10.5-2.3,13.9-6.5l8.2,7.5c-5.2,6.4-13.1,9.9-22.7,9.9
	C232.1,482.5,219.3,470.6,219.3,454z"/>
<path class="st1" d="M331.4,469.8h-25.6l-4.9,11.8h-13.1l24.6-55.1H325l24.7,55.1h-13.4L331.4,469.8z M327.4,460.1l-8.7-21.1
	l-8.7,21.1L327.4,460.1z"/>
<path class="st1" d="M406.2,481.5l-10.6-15.3h-11.7v15.3h-12.7v-55.1h23.8c14.7,0,23.9,7.6,23.9,20c0,8.3-4.2,14.3-11.3,17.4
	l12.3,17.7L406.2,481.5z M394.2,436.9h-10.4v19.2h10.4c7.8,0,11.7-3.6,11.7-9.6S402,436.9,394.2,436.9L394.2,436.9z"/>
<path class="st1" d="M480.9,469.8h-25.6l-4.9,11.8h-13.1l24.5-55.1h12.6l24.6,55.1h-13.4L480.9,469.8z M476.9,460.1l-8.7-21.1
	l-8.7,21.1L476.9,460.1z"/>
<path class="st1" d="M529.3,436.9h-17.6v-10.4h48v10.4H542v44.7h-12.8V436.9z"/>
<path class="st1" d="M577.5,476.1l4.3-9.6c5.3,3.7,11.7,5.7,18.2,5.8c7.5,0,10.6-2.5,10.6-5.9c0-10.3-32-3.2-32-23.7
	c0-9.4,7.6-17.1,23.2-17.1c6.9,0,14,1.6,19.1,4.9l-3.9,9.7c-4.6-2.7-9.9-4.2-15.3-4.3c-7.6,0-10.5,2.8-10.5,6.3
	c0,10.1,32,3.1,32,23.4c0,9.2-7.6,17.1-23.4,17.1C591.2,482.5,582.4,479.9,577.5,476.1z"/>
</svg>
