<?xml version="1.0" encoding="utf-8"?>
<!-- Generator: Adobe Illustrator 22.1.0, SVG Export Plug-In . SVG Version: 6.00 Build 0)  -->
<svg version="1.1" id="Capa_1" xmlns="http://www.w3.org/2000/svg" xmlns:xlink="http://www.w3.org/1999/xlink" x="0px" y="0px"
	 viewBox="0 0 380.6 380.6" style="enable-background:new 0 0 380.6 380.6;" xml:space="preserve">
<style type="text/css">
	.st0{fill:#2A3140;}
</style>
<g>
	<g>
		<path class="st0" d="M206,75.3c-26.5,0-48,21.5-48,48c0,12.7,5.1,24.9,14,33.9c9,9,21.2,14.1,34,14.1c26.5,0,48-21.5,48-48
			S232.5,75.3,206,75.3z M231.9,149c-14.3,14.3-37.4,14.3-51.6,0c-6.9-6.9-10.7-16.2-10.7-25.8c0-9.7,3.8-19,10.7-25.8
			c14.3-14.3,37.4-14.3,51.6,0C246.2,111.6,246.2,134.7,231.9,149z"/>
	</g>
</g>
<g>
	<g>
		<path class="st0" d="M233.2,185.6H179c-35.3,0-64,28.7-64,64v36.7c0,3.2,2.6,5.8,5.8,5.8h170.6c3.2,0,5.8-2.6,5.8-5.8v-36.7
			C297.2,214.3,268.5,185.6,233.2,185.6z M285.6,280.6H126.7v-30.9c0.1-28.9,23.5-52.3,52.4-52.4h54.1c28.9,0.1,52.3,23.5,52.4,52.4
			V280.6z"/>
	</g>
</g>
<g>
	<g>
		<path class="st0" d="M356.3,7.5C351.5,2.7,345,0,338.3,0H73.9c-14,0-25.4,11.4-25.4,25.5v32.4h-9.8c-12.1,0-21.8,9.8-21.8,21.8
			v1.4c0,12.1,9.8,21.8,21.8,21.8h9.7v64.9h-9.7c-12.1,0-21.8,9.8-21.8,21.8v1.4c0,12.1,9.8,21.8,21.8,21.8h9.7V278h-9.7
			c-12.1,0-21.8,9.8-21.8,21.8v1.4c0,12.1,9.8,21.9,21.8,21.9h9.7v32c0,6.7,2.7,13.2,7.5,18s11.2,7.5,18,7.5h264.4
			c14.1,0,25.5-11.4,25.5-25.5V25.4C363.7,18.7,361,12.2,356.3,7.5z M38.7,91c-5.4,0-9.8-4.4-9.8-9.8v-1.4c0-5.4,4.4-9.9,9.8-9.9
			l0,0h30.4c5.4,0,9.8,4.4,9.8,9.8v1.4c0,5.4-4.4,9.8-9.8,9.8L38.7,91z M38.7,201.1c-5.4,0-9.8-4.4-9.8-9.8v-1.4
			c0-5.4,4.4-9.9,9.8-9.9l0,0h30.4c5.4,0,9.8,4.4,9.8,9.8v1.4c0,5.4-4.4,9.8-9.8,9.8L38.7,201.1z M38.7,311.1
			c-5.4,0-9.8-4.4-9.8-9.8v-1.4c0-5.4,4.4-9.9,9.8-9.9l0,0h30.4c5.4,0,9.8,4.4,9.8,9.8v1.4c0,5.4-4.4,9.8-9.8,9.8L38.7,311.1z
			 M352.1,355.1c0,7.6-6.2,13.8-13.9,13.9H73.9c-3.7,0-7.2-1.4-9.8-4c-2.6-2.6-4-6.1-4-9.8v-32h9.2c12.1,0,21.8-9.8,21.8-21.8V300
			c0-12.1-9.8-21.8-21.8-21.8H60v-65h9.2c12.1,0,21.8-9.8,21.8-21.8V190c0-12.1-9.8-21.8-21.8-21.8H60V103h9.2
			c12,0,21.8-9.8,21.8-21.8v-1.4C91,67.7,81.2,58,69.2,58H60V25.5c0-7.6,6.2-13.8,13.9-13.9h264.4c7.7,0,13.9,6.2,13.9,13.9
			L352.1,355.1z"/>
	</g>
</g>
</svg>
